<svg xmlns="http://www.w3.org/2000/svg" style="display:none">
  <!-- TAREFA 1: SVG sprite — 28 icons extracted from Font Awesome 6.4 Free (solid+brands) -->
  <!-- fa-plane-up -->
  <symbol id="icon-plane-up" viewBox="0 0 512 512"><path fill="currentColor" d="M192 93.7C192 59.5 221 0 256 0c36 0 64 59.5 64 93.7l0 66.3L497.8 278.5c8.9 5.3 14.2 14.9 14.2 25.1L512 368c0 11.5-9.1 20.8-20.5 21.2c-2.4 .1-4.7-.3-6.9-1.1L320 328.2l0 63.8 44.4 29.6c8.4 5.6 13.6 15 13.6 25.2l0 33.2c0 11-8.6 20.1-19.6 20.8c-2.4 .2-4.7-.2-6.9-1L256 464l-95.5 35.8c-2.2 .8-4.5 1.2-6.9 1c-11-.8-19.6-9.8-19.6-20.8l0-33.2c0-10.2 5.1-19.6 13.6-25.2L192 392l0-63.8L27.4 388.1c-2.2 .8-4.5 1.2-6.9 1.1C9.1 388.8 0 379.5 0 368l0-64.5c0-10.2 5.3-19.7 14.2-25.1L192 160l0-66.3z"/></symbol>
  <!-- fa-chevron-down -->
  <symbol id="icon-chevron-down" viewBox="0 0 512 512"><path fill="currentColor" d="M233.4 406.6c12.5 12.5 32.8 12.5 45.3 0l192-192c12.5-12.5 12.5-32.8 0-45.3s-32.8-12.5-45.3 0L256 338.7 86.6 169.4c-12.5-12.5-32.8-12.5-45.3 0s-12.5 32.8 0 45.3l192 192z"/></symbol>
  <!-- fa-chevron-right -->
  <symbol id="icon-chevron-right" viewBox="0 0 320 512"><path fill="currentColor" d="M310.6 233.4c12.5 12.5 12.5 32.8 0 45.3l-192 192c-12.5 12.5-32.8 12.5-45.3 0s-12.5-32.8 0-45.3L242.7 256 73.4 86.6c-12.5-12.5-12.5-32.8 0-45.3s32.8-12.5 45.3 0l192 192z"/></symbol>
  <!-- fa-chevron-left -->
  <symbol id="icon-chevron-left" viewBox="0 0 320 512"><path fill="currentColor" d="M9.4 233.4c-12.5 12.5-12.5 32.8 0 45.3l192 192c12.5 12.5 32.8 12.5 45.3 0s12.5-32.8 0-45.3L77.3 256 246.6 86.6c12.5-12.5 12.5-32.8 0-45.3s-32.8-12.5-45.3 0l-192 192z"/></symbol>
  <!-- fa-charging-station -->
  <symbol id="icon-charging-station" viewBox="0 0 576 512"><path fill="currentColor" d="M96 0C60.7 0 32 28.7 32 64l0 384c-17.7 0-32 14.3-32 32s14.3 32 32 32l288 0c17.7 0 32-14.3 32-32s-14.3-32-32-32l0-144 16 0c22.1 0 40 17.9 40 40l0 32c0 39.8 32.2 72 72 72s72-32.2 72-72l0-123.7c0-42.6-17-83.4-47.2-113.5L425.9 181c-14.1-14.1-20.5-34.7-17-54.7l8.7-49.8c3.2-18.4-3.7-37.2-18.1-49.4C384.4 14.3 365.4 6.9 345.7 9.3l-15.2 1.7C316.3 12.7 304 25.2 304 39.7l0 8.6c0 11.9-4.8 23.4-13.2 31.8L256 114.7l0-50.7c0-35.3-28.7-64-64-64L96 0zm64 131.9L127.1 164.8C117 174.9 112 188.8 112 203.2l0 4.9c0 .5 .4 .9 .9 .9l46.2 0c.5 0 .9-.4 .9-.9l0-76.2zM112 288l0-32 128 0 0 32-128 0zM304 128l0 96c0 17.7 14.3 32 32 32l48 0 0 96-192 0 0-224 112 0zm32 160l0-96 0-64 0 160z"/></symbol>
  <!-- fa-battery-full -->
  <symbol id="icon-battery-full" viewBox="0 0 576 512"><path fill="currentColor" d="M464 160c8.8 0 16 7.2 16 16l0 160c0 8.8-7.2 16-16 16L80 352c-8.8 0-16-7.2-16-16l0-160c0-8.8 7.2-16 16-16l384 0zM80 96C35.8 96 0 131.8 0 176L0 336c0 44.2 35.8 80 80 80l384 0c44.2 0 80-35.8 80-80l0-16c17.7 0 32-14.3 32-32l0-64c0-17.7-14.3-32-32-32l0-16c0-44.2-35.8-80-80-80L80 96zm368 96L96 192l0 128 352 0 0-128z"/></symbol>
  <!-- fa-microscope -->
  <symbol id="icon-microscope" viewBox="0 0 512 512"><path fill="currentColor" d="M160 32c0-17.7 14.3-32 32-32l32 0c17.7 0 32 14.3 32 32l0 32 32 0c8.8 0 16 7.2 16 16l0 48c0 8.8-7.2 16-16 16l-32 0 0 128c17.7 0 32 14.3 32 32s-14.3 32-32 32c-27.5 51.6-78.2 88-137.3 95.1C99.7 449.7 86.1 464 69.3 464L32 464c-17.9 0-32.3-14.8-31.9-32.7C.5 420 6.2 409.2 14.1 400.2C37.1 374.5 48 339.3 48 304l0-48-16 0c-8.8 0-16-7.2-16-16l0-48c0-8.8 7.2-16 16-16l32 0 0-32 32 0 0 128 96 0 0-128-32 0 0-32 0-64zm352 96c53 0 96 43 96 96c0 44.2-29.9 81.4-70.6 92.6c-2 .6-3.4 2.3-3.4 4.4l0 3c0 26.5-21.5 48-48 48c-21.8 0-40.2-14.5-46.1-34.4c-1-3.3-3.9-5.6-7.3-5.6l-26.6 0c-4.1 0-7.3 3.5-6.8 7.6C406.1 366.8 436.9 400 480 416l0 64c0 17.7-14.3 32-32 32l-320 0c-17.7 0-32-14.3-32-32s14.3-32 32-32l224 0c0-38.7-24.4-71.7-58.6-84.3C283.6 359.5 273.2 352 265 340.1c-1.5-2.1-.8-5.1 1.5-6.2c29.8-14.5 50.3-42.5 55-75.4c.3-2.1-.9-4.1-2.9-4.9c-49.3-19.4-84.6-67.3-84.6-123.6c0-73.2 59.3-132.4 132.4-132c73 .4 132.1 59.8 132.1 132.9c0 56.3-35.2 104.3-84.8 123.6c-2 .8-3.2 2.8-2.9 4.9c4.7 32.8 25.2 60.9 55 75.4c2.3 1.1 3 4.1 1.5 6.2z"/></symbol>
  <!-- fa-cogs (gear) -->
  <symbol id="icon-cogs" viewBox="0 0 640 512"><path fill="currentColor" d="M308.5 135.3c7.1-6.3 9.9-16.2 6.2-25c-2.3-5.3-4.8-10.5-7.6-15.5L304 89.4c-3-5-6.3-9.9-9.8-14.6c-5.7-7.6-15.7-10.1-24.7-7.1l-28.2 9.3c-10.7-8.8-23-16-36.2-20.9L199 27.1c-1.9-9.3-9.1-16.7-18.5-17.8C173.9 8.4 167.2 8 160.4 8l-.7 0c-6.8 0-13.5 .4-20.1 1.2c-9.4 1.1-16.6 8.6-18.5 17.8L115 56.1c-13.3 5-25.5 12.1-36.2 20.9L50.7 67.7c-9-3-18.9-.5-24.7 7.1c-3.5 4.7-6.8 9.6-9.8 14.6l-3.1 5.4c-2.8 5-5.3 10.2-7.6 15.5c-3.7 8.7-.9 18.6 6.2 25l22.2 19.8C32.8 161.9 32 168.9 32 176s.8 14.1 2.1 20.9L11.8 216.7c-7.1 6.3-9.9 16.2-6.2 25c2.3 5.3 4.8 10.5 7.6 15.5l3.1 5.4c3 5 6.3 9.9 9.8 14.6c5.7 7.6 15.7 10.1 24.7 7.1l28.2-9.3c10.7 8.8 23 16 36.2 20.9l6.1 29.1c1.9 9.3 9.1 16.7 18.5 17.8c6.7 .8 13.5 1.2 20.4 1.2s13.7-.4 20.4-1.2c9.4-1.1 16.6-8.6 18.5-17.8l6.1-29.1c13.3-5 25.5-12.1 36.2-20.9l28.2 9.3c9 3 18.9 .5 24.7-7.1c3.5-4.7 6.8-9.6 9.8-14.6l3.1-5.4c2.8-5 5.3-10.2 7.6-15.5c3.7-8.7 .9-18.6-6.2-25l-22.2-19.8c1.3-6.8 2.1-13.9 2.1-20.9s-.8-14.1-2.1-20.9l22.2-19.8zM112 176a48 48 0 1 1 96 0 48 48 0 1 1 -96 0zM504.7 500.5c6.3 7.1 16.2 9.9 25 6.2c5.3-2.3 10.5-4.8 15.5-7.6l5.4-3.1c5-3 9.9-6.3 14.6-9.8c7.6-5.7 10.1-15.7 7.1-24.7l-9.3-28.2c8.8-10.7 16-23 20.9-36.2l29.1-6.1c9.3-1.9 16.7-9.1 17.8-18.5c.8-6.7 1.2-13.5 1.2-20.4s-.4-13.7-1.2-20.4c-1.1-9.4-8.6-16.6-17.8-18.5l-29.1-6.1c-5-13.3-12.1-25.5-20.9-36.2l9.3-28.2c3-9 .5-18.9-7.1-24.7c-4.7-3.5-9.6-6.8-14.6-9.8l-5.4-3.1c-5-2.8-10.2-5.3-15.5-7.6c-8.7-3.7-18.6-.9-25 6.2l-19.8 22.2c-6.8-1.3-13.9-2.1-20.9-2.1s-14.1 .8-20.9 2.1l-19.8-22.2c-6.3-7.1-16.2-9.9-25-6.2c-5.3 2.3-10.5 4.8-15.5 7.6l-5.4 3.1c-5 3-9.9 6.3-14.6 9.8c-7.6 5.7-10.1 15.7-7.1 24.7l9.3 28.2c-8.8 10.7-16 23-20.9 36.2L315.1 313c-9.3 1.9-16.7 9.1-17.8 18.5c-.8 6.7-1.2 13.5-1.2 20.4s.4 13.7 1.2 20.4c1.1 9.4 8.6 16.6 17.8 18.5l29.1 6.1c5 13.3 12.1 25.5 20.9 36.2l-9.3 28.2c-3 9-.5 18.9 7.1 24.7c4.7 3.5 9.6 6.8 14.6 9.8l5.4 3.1c5 2.8 10.2 5.3 15.5 7.6c8.7 3.7 18.6 .9 25-6.2l19.8-22.2c6.8 1.3 13.9 2.1 20.9 2.1s14.1-.8 20.9-2.1l19.8 22.2zM464 304a48 48 0 1 1 0 96 48 48 0 1 1 0-96z"/></symbol>
  <!-- fa-fighter-jet -->
  <symbol id="icon-fighter-jet" viewBox="0 0 640 512"><path fill="currentColor" d="M160 24c0-13.3 10.7-24 24-24l8 0c6 0 11.8 2.2 16.3 6.2l89.4 80.5 119.3 0c12.2 0 24.2 3.2 34.9 9.3l147.8 84.5c6.8 3.9 11.1 11.1 11.3 19.1l.4 14.4c.4 12.8-9.8 23.4-22.6 23.4l-26.8 0c-6.7 0-13.4-1.4-19.6-4.2l-90.4-40.2-119.3 0-42.8 42.9c-5 5-12.4 6.4-18.8 3.6c-6.4-2.8-10.6-9.1-10.6-16.1l0-28.3-48 0-22.4 22.4c-4.5 4.5-10.6 7-17 7L64 248c-8.8 0-16-7.2-16-16l0-80L16 152C7.2 152 0 144.8 0 136L0 120c0-8.8 7.2-16 16-16l32 0L48 24c0-13.3 10.7-24 24-24l8 0c9.9 0 19.3 6.1 23.5 15l15.8 33.6L160 48.6l0-24.6zM0 376c0-8.8 7.2-16 16-16l32 0 0-80 32 0 0 80c8.8 0 16 7.2 16 16l0 96c0 22.1-17.9 40-40 40l-16 0c-22.1 0-40-17.9-40-40l0-96z"/></symbol>
  <!-- fa-shield-alt -->
  <symbol id="icon-shield-alt" viewBox="0 0 512 512"><path fill="currentColor" d="M256 0c4.6 0 9.2 1 13.4 2.9L457.7 82.8c22 9.3 38.4 31 38.3 57.2c-.5 99.2-41.3 280.7-213.6 363.2c-16.7 8-36.1 8-52.8 0C57.3 420.7 16.5 239.2 16 140c-.1-26.2 16.3-47.9 38.3-57.2L242.7 2.9C246.8 1 251.4 0 256 0z"/></symbol>
  <!-- fa-globe-europe (globe-europe renamed to earth-europe in FA6) -->
  <symbol id="icon-globe-europe" viewBox="0 0 512 512"><path fill="currentColor" d="M266.3 48.3L232.5 73.6c-5.4 4-8.5 10.4-8.5 17.1l0 9.1c0 6.8 5.5 12.3 12.3 12.3c2.4 0 4.8-.7 6.8-2.1l41.8-27.9c2-1.3 4.4-2.1 6.8-2.1l1 0c6.2 0 11.3 5.1 11.3 11.3c0 3-1.2 5.9-3.3 8l-19.9 19.9c-5.8 5.8-12.9 10.2-20.7 12.8l-26.5 8.8c-5.4 1.8-11.7-.1-15.4-4.6l-7.8-9.4c-3-3.6-7.3-5.7-12-5.7c-8.9 0-16.1 7.2-16.1 16.1c0 2.3 .5 4.6 1.4 6.7l23.5 52.2c3.3 7.3 10.5 12 18.6 12l3.7 0c5.8 0 10.5-4.7 10.5-10.5c0-1.9-.5-3.7-1.4-5.4l-9.1-16.4c-2.1-3.8-1.2-8.5 2.1-11.3c3-2.6 7.3-3 10.8-1l12.2 7c5.2 3 8.3 8.5 8.3 14.5l0 18.1c0 3.2 2.6 5.7 5.7 5.7c5.3 0 9.6 4.3 9.6 9.6l0 18.6c0 3.7 3 6.8 6.8 6.8c2.9 0 5.4-1.8 6.3-4.5l6.2-18.7c3.3-10 12.5-16.8 23.1-16.8l25.9 0c2.8 0 5.4-1.6 6.7-4.2c0 0 0 0 0 0l3.1-6.2c1.4-2.8 4.5-4.6 7.8-4.8c140.2-8.3 235.3 120.2 235.3 120.2l-7.2 7.2c-10.1 10.1-24.5 14.6-38.3 11.8l-45.2-9c-11.3-2.3-23 .1-32.6 6.5l-2.9 1.9c-10.3 6.9-17 17.6-18.7 29.6l-2.1 15c-.8 5.8 .5 11.7 3.7 16.5l11.7 17.5c4.3 6.4 6.6 14 6.6 21.7l0 .6C480 477.1 379 512 268.5 512C134.9 512 24.6 414.6 2.4 288l45 0c8.5 0 16.6-3.4 22.6-9.4L86.4 262.2c2.5-2.5 5.9-3.9 9.4-3.9l30.6 0c7.6 0 13.8 6.2 13.8 13.8c0 1.7-.3 3.3-.9 4.9l-10.8 27c-2.9 7.2-10 12-17.8 12l-14.4 0L60.5 372.5c-2.4 3.6-.3 8.5 3.9 9.1l32.7 4.7c10.1 1.5 20.3-1.3 28.4-7.7l42.9-33.6c5.5-4.3 12.3-6.7 19.3-6.7l30 0c2.3 0 4.5-.3 6.6-.8l25.9-6.5c5.9-1.5 12.3-.5 17.4 2.7l18.2 11.4c4.2 2.6 9 4 14 4l4.9 0c12.4 0 22.4-10.1 22.4-22.4c0-2.5-.4-4.9-1.2-7.2l-6.6-19.8c-3-8.9-2.8-18.5 .4-27.3l3.1-8.4c5.5-15.1 20-25.2 36.2-25.2l3.4 0c9.2 0 17.8 4.5 23.1 12l6.4 9.1c4 5.8 10.6 9.2 17.7 9.2l0 0c4.2 0 7.7-3.4 7.7-7.7c0-2.7-1.4-5.2-3.8-6.6l-20.8-12.5c-6.3-3.8-9.7-11-8.5-18.3l.3-1.5c1.7-8.5 9.2-14.7 17.8-14.7l0 0c1.8 0 3.6 .3 5.3 .9l22.5 7.5c8.3 2.8 13.9 10.5 13.9 19.2l0 5.1c0 7.4-2.8 14.4-7.8 19.8l-29.7 31.7l-4.1 32.6c-1.2 9.6 5.7 18.4 15.3 19.3l7.3 .7c10.5 1 18.6 9.7 18.6 20.3c0 2.2-.3 4.3-1 6.3l-9.4 28.3c-8.3 24.8-31.2 41.5-57.5 41.5L327 459c-7.9 0-15.2-4.3-19-11.2L295.3 425c-2.8-5.1-4.3-10.9-4.3-16.8l0-27.3c0-15.8 8.4-30.4 22.1-38.3l8.5-4.9c2.7-1.6 4.4-4.5 4.4-7.6l0-2.8c0-5.6-3.2-10.7-8.3-13.1l-1.8-.9c-5.4-2.7-7.9-9-6-14.7l4.9-14.7c.6-1.7 .9-3.5 .9-5.4l0-14.8c0-5.3 3-10.1 7.7-12.5c6.7-3.3 14.3-5 22-5l19.8 0c7.8 0 15.4-2.5 21.7-7.1L411.1 297c8.6-6.3 14-16.1 14.6-26.8c.1-1.3 .1-2.7 .1-4c0-22.1-14.4-41.6-35.5-48.1l-5.4-1.7c-3.5-1.1-5.9-4.4-5.9-8.1l0-25c0-3.7 2.4-7 5.9-8.1l6.2-2c8.8-2.8 14.7-11 14.7-20.3c0-11.7-9.5-21.2-21.2-21.2l-10 0c-5.5 0-10.9 1.6-15.5 4.7l-37.4 24.9c-7 4.7-15.2 7.2-23.7 7.2l-6.3 0c-14.1 0-27.2-7.3-34.6-19.3l-22-35.8c-6-9.7-14.3-17.8-24.3-23.4l-13.4-7.4c-4.9-2.7-10.4-4.2-16-4.2l-3.4 0c-7.6 0-15.1 2.1-21.6 6.1L176 84c-8.3 5.1-18.5 4.2-25.8-2.2L134 67.1c-3.3-2.9-7.5-4.6-11.9-4.6L72 62.6c-7.6 0-14.4 4.8-16.9 12L48.8 96.2c-2.1 5.9-1.3 12.5 2.1 17.7L62.9 132c.8 1.2 1.3 2.5 1.3 3.9l0 14.5c0 .9-.2 1.7-.5 2.5L50 186.6c-1 2.7-2.5 5.2-4.4 7.3L8.3 234c-5.7 6.1-4.8 15.8 1.9 20.7L29 268.3c2 1.4 4.3 2.2 6.7 2.2l13 0c3.5 0 6.4-2.9 6.4-6.4c0-1-.2-2-.7-2.8L37.6 221.4c-4.1-6.1-2.1-14.4 4.3-18l6.5-3.6c4.4-2.4 9.4-3.8 14.5-3.8l5.2 0c3.6 0 7.1 .5 10.5 1.6l6.5 2c3.7 1.1 7.6-.8 9.2-4.3l4.9-10.8c.8-1.7 2.2-3 4-3.5l6.7-2.2c6.4-2.1 10.7-8.1 10.7-14.9l0-3.9c0-4.6-1.9-9-5.3-12.1l-3.4-3.1c-2.9-2.7-6.8-4.2-10.8-4.2l-3.6 0c-7 0-13.6 3-18.1 8.3l-2.6 3c-2.5 2.9-6.1 4.6-9.9 4.6c-7.2 0-13-5.8-13-13l0-14.4c0-2.6 .8-5.2 2.3-7.3L72 104c2.2-3 5.7-4.8 9.4-4.8l20.2 0c5.5 0 10.5 3.2 12.8 8.2l0 0c2.3 5 7.3 8.2 12.8 8.2l0 0c5.7 0 10.8-3.5 12.9-8.8L146 91.2c5-12.5 17-20.6 30.6-20.6l28.4 0c6.2 0 12.1 2.5 16.4 6.8l13 13c8.3 8.3 21.5 9 30.7 1.8L276.2 83c10-7.9 22.6-12.2 35.5-12.2l24.4 0c3 0 5.4 2.4 5.4 5.4l0 11.2c0 3.9-3.2 7.1-7.1 7.1h-5.4c-4.7 0-9.3 1.3-13.3 3.7l-13.7 8.2c-4.7 2.8-10.2 4.3-15.7 4.3l-28 0c-4.2 0-8.2 2.3-10.2 6l-1.2 2.3c-2 3.7-1.3 8.2 1.7 11.2l3.6 3.6c4 4 10 5.5 15.5 4l2.5-.7c2.4-.7 4.9-1 7.4-1l1.3 0c8.4 0 16.2 4.3 20.7 11.3L307 156.7c1.4 2.2 .8 5.1-1.3 6.6l-2.1 1.6c-3.6 2.7-5.7 6.8-5.7 11.2l0 3.2c0 4.9 2.5 9.5 6.6 12.2l0 0c2.6 1.7 5.7 2.6 8.9 2.6l3 0c7.5 0 14.4-4.1 18-10.6l12.1-22.1c2.9-5.3 8.5-8.6 14.6-8.6l2.3 0c10.3 0 19.5 6.4 23.1 16l3.4 9.2c1.4 3.7 .8 7.8-1.5 11l-6.6 9.1c-3.2 4.4-8.3 7-13.7 7c-2 0-3.6-1.6-3.6-3.6l0-1.8c0-9.6-13.6-13.2-18-4.8l-1.8 3.5c-4.7 9.3-14.2 15.2-24.6 15.2L278 192c-10.8 0-21.1 4.5-28.4 12.5l-8 8.7c-4.4 4.8-4.1 12.4 .8 16.8c4.4 3.9 11 3.7 15.2-.5l3.1-3.1c7.8-7.8 18.4-12.2 29.4-12.2h1.4c6 0 11.5 3.7 13.7 9.4c.9 2.3 1.4 4.8 1.4 7.3l0 1.5c0 4.2 3.4 7.6 7.6 7.6h34c5.5 0 10 4.5 10 10l0 2c0 5.5-4.5 10-10 10h-11c-6.6 0-12 5.4-12 12l0 5c0 6.6 5.4 12 12 12h10c5.5 0 10 4.5 10 10l0 2c0 5.5-4.5 10-10 10h-10z"/></symbol>
  <!-- fa-file-signature -->
  <symbol id="icon-file-signature" viewBox="0 0 576 512"><path fill="currentColor" d="M64 0C28.7 0 0 28.7 0 64L0 448c0 35.3 28.7 64 64 64l256 0c35.3 0 64-28.7 64-64l0-19.3c-2.7 1.1-5.4 2-8.2 2.7l-60.1 15c-3 .7-6 1.2-9 1.4c-.9 .1-1.8 .2-2.7 .2l-64 0c-6.1 0-11.6-3.4-14.3-8.8l-8.8-17.7c-1.7-3.4-5.1-5.5-8.8-5.5s-7.2 2.1-8.8 5.5l-8.8 17.7c-2.9 5.9-9.2 9.4-15.7 8.8s-12.1-5.1-13.9-11.3L144 381l-9.8 32.8c-6.1 20.3-24.8 34.2-46 34.2L80 448c-8.8 0-16-7.2-16-16s7.2-16 16-16l8.2 0c7.1 0 13.3-4.6 15.3-11.4l14.9-49.5c3.4-11.3 13.8-19.1 25.6-19.1s22.2 7.8 25.6 19.1l11.6 38.6c7.4-6.2 16.8-9.7 26.8-9.7c15.9 0 30.4 9 37.5 23.2l4.4 8.8 54.8-13.7 30.2-45.3c4.9-7.4 13.2-11.9 22-11.9s17.1 4.5 22 11.9l13.2 19.8c2.1-7.7 3.2-15.8 3.2-24.1L384 64c0-35.3-28.7-64-64-64L64 0zM96 64l192 0c8.8 0 16 7.2 16 16s-7.2 16-16 16L96 96c-8.8 0-16-7.2-16-16s7.2-16 16-16zM80 160c0-8.8 7.2-16 16-16l192 0c8.8 0 16 7.2 16 16s-7.2 16-16 16L96 176c-8.8 0-16-7.2-16-16zM96 208l192 0c8.8 0 16 7.2 16 16s-7.2 16-16 16L96 240c-8.8 0-16-7.2-16-16s7.2-16 16-16z"/></symbol>
  <!-- fa-arrow-right -->
  <symbol id="icon-arrow-right" viewBox="0 0 448 512"><path fill="currentColor" d="M438.6 278.6c12.5-12.5 12.5-32.8 0-45.3l-160-160c-12.5-12.5-32.8-12.5-45.3 0s-12.5 32.8 0 45.3L338.8 224 32 224c-17.7 0-32 14.3-32 32s14.3 32 32 32l306.7 0L233.4 393.4c-12.5 12.5-12.5 32.8 0 45.3s32.8 12.5 45.3 0l160-160z"/></symbol>
  <!-- fa-phone-alt (phone-flip) -->
  <symbol id="icon-phone-alt" viewBox="0 0 512 512"><path fill="currentColor" d="M347.1 24.6c7.7-18.6 28-28.5 47.4-23.2l88 24C499.9 30.2 512 46 512 64c0 247.4-200.6 448-448 448c-18 0-33.8-12.1-38.6-29.5l-24-88c-5.3-19.4 4.6-39.7 23.2-47.4l96-40c16.3-6.8 35.2-2.1 46.3 11.6L207.3 368c70.4-33.3 127.4-90.3 160.7-160.7L318.7 167c-13.7-11.2-18.4-30-11.6-46.3l40-96z"/></symbol>
  <!-- fa-envelope -->
  <symbol id="icon-envelope" viewBox="0 0 512 512"><path fill="currentColor" d="M48 64C21.5 64 0 85.5 0 112c0 15.1 7.1 29.3 19.2 38.4L236.8 313.6c11.4 8.5 27 8.5 38.4 0L492.8 150.4c12.1-9.1 19.2-23.3 19.2-38.4c0-26.5-21.5-48-48-48L48 64zM0 176L0 384c0 35.3 28.7 64 64 64l384 0c35.3 0 64-28.7 64-64l0-208L294.4 339.2c-22.8 17.1-54 17.1-76.8 0L0 176z"/></symbol>
  <!-- fa-map-marker-alt -->
  <symbol id="icon-map-marker-alt" viewBox="0 0 384 512"><path fill="currentColor" d="M215.7 499.2C267 435 384 279.4 384 192C384 86 298 0 192 0S0 86 0 192c0 87.4 117 243 168.3 307.2c12.3 15.3 35.1 15.3 47.4 0zM192 128a64 64 0 1 1 0 128 64 64 0 1 1 0-128z"/></symbol>
  <!-- fa-check-circle (circle-check) -->
  <symbol id="icon-check-circle" viewBox="0 0 512 512"><path fill="currentColor" d="M256 512A256 256 0 1 0 256 0a256 256 0 1 0 0 512zM369.2 198.6L232 335.8 142.8 246.6c-12.5-12.5-12.5-32.8 0-45.3s32.8-12.5 45.3 0L232 245.2l92-92c12.5-12.5 32.8-12.5 45.3 0s12.5 32.8 0 45.3z"/></symbol>
  <!-- fa-exclamation-circle -->
  <symbol id="icon-exclamation-circle" viewBox="0 0 512 512"><path fill="currentColor" d="M256 512A256 256 0 1 0 256 0a256 256 0 1 0 0 512zm0-384c13.3 0 24 10.7 24 24l0 112c0 13.3-10.7 24-24 24s-24-10.7-24-24l0-112c0-13.3 10.7-24 24-24zM232 372a24 24 0 1 1 48 0 24 24 0 1 1 -48 0z"/></symbol>
  <!-- fa-exclamation-triangle (triangle-exclamation) -->
  <symbol id="icon-exclamation-triangle" viewBox="0 0 512 512"><path fill="currentColor" d="M256 32c14.2 0 27.3 7.5 34.5 19.8l216 368c7.3 12.4 7.3 27.7 .2 40.1S486.3 480 472 480L40 480c-14.3 0-27.6-7.7-34.7-20.1s-7-27.8 .2-40.1l216-368C228.7 39.5 241.8 32 256 32zm0 128c-13.3 0-24 10.7-24 24l0 112c0 13.3 10.7 24 24 24s24-10.7 24-24l0-112c0-13.3-10.7-24-24-24zm32 224a32 32 0 1 0 -64 0 32 32 0 1 0 64 0z"/></symbol>
  <!-- fa-wrench -->
  <symbol id="icon-wrench" viewBox="0 0 512 512"><path fill="currentColor" d="M352 320c88.4 0 160-71.6 160-160c0-15.3-2.2-30.1-6.2-44.2c-3.1-10.8-16.4-13.2-24.3-5.3l-76.8 76.8c-3 3-7.1 4.7-11.3 4.7L336 192c-8.8 0-16-7.2-16-16l0-57.4c0-4.2 1.7-8.3 4.7-11.3l76.8-76.8c7.9-7.9 5.4-21.2-5.3-24.3C382.1 2.2 367.3 0 352 0C263.6 0 192 71.6 192 160c0 19.1 3.4 37.5 9.5 54.5L19.9 396.1C7.2 408.8 0 426.1 0 444.1C0 481.6 30.4 512 67.9 512c18 0 35.3-7.2 48-19.9L297.5 310.5c17 6.2 35.4 9.5 54.5 9.5zM80 408a24 24 0 1 1 0 48 24 24 0 1 1 0-48z"/></symbol>
  <!-- fa-search (magnifying-glass) -->
  <symbol id="icon-search" viewBox="0 0 512 512"><path fill="currentColor" d="M416 208c0 45.9-14.9 88.3-40 122.7L502.6 457.4c12.5 12.5 12.5 32.8 0 45.3s-32.8 12.5-45.3 0L330.7 376c-34.4 25.2-76.8 40-122.7 40C93.1 416 0 322.9 0 208S93.1 0 208 0S416 93.1 416 208zM208 352a144 144 0 1 0 0-288 144 144 0 1 0 0 288z"/></symbol>
  <!-- fa-microchip -->
  <symbol id="icon-microchip" viewBox="0 0 512 512"><path fill="currentColor" d="M176 24c0-13.3-10.7-24-24-24s-24 10.7-24 24l0 40c-35.3 0-64 28.7-64 64l-40 0c-13.3 0-24 10.7-24 24s10.7 24 24 24l40 0 0 56-40 0c-13.3 0-24 10.7-24 24s10.7 24 24 24l40 0 0 56-40 0c-13.3 0-24 10.7-24 24s10.7 24 24 24l40 0c0 35.3 28.7 64 64 64l0 40c0 13.3 10.7 24 24 24s24-10.7 24-24l0-40 56 0 0 40c0 13.3 10.7 24 24 24s24-10.7 24-24l0-40 56 0 0 40c0 13.3 10.7 24 24 24s24-10.7 24-24l0-40c35.3 0 64-28.7 64-64l40 0c13.3 0 24-10.7 24-24s-10.7-24-24-24l-40 0 0-56 40 0c13.3 0 24-10.7 24-24s-10.7-24-24-24l-40 0 0-56 40 0c13.3 0 24-10.7 24-24s-10.7-24-24-24l-40 0c0-35.3-28.7-64-64-64l0-40c0-13.3-10.7-24-24-24s-24 10.7-24 24l0 40-56 0 0-40c0-13.3-10.7-24-24-24s-24 10.7-24 24l0 40-56 0 0-40zM160 128l192 0c17.7 0 32 14.3 32 32l0 192c0 17.7-14.3 32-32 32l-192 0c-17.7 0-32-14.3-32-32l0-192c0-17.7 14.3-32 32-32zm192 32l-192 0 0 192 192 0 0-192z"/></symbol>
  <!-- fa-layer-group -->
  <symbol id="icon-layer-group" viewBox="0 0 576 512"><path fill="currentColor" d="M264.5 5.2c14.9-6.9 32.1-6.9 47 0l218.6 101c8.5 3.9 13.9 12.4 13.9 21.8s-5.4 17.9-13.9 21.8l-218.6 101c-14.9 6.9-32.1 6.9-47 0L45.9 149.8C37.4 145.8 32 137.3 32 128s5.4-17.9 13.9-21.8L264.5 5.2zM476.9 209.6l53.2 24.6c8.5 3.9 13.9 12.4 13.9 21.8s-5.4 17.9-13.9 21.8l-218.6 101c-14.9 6.9-32.1 6.9-47 0L45.9 277.8C37.4 273.8 32 265.3 32 256s5.4-17.9 13.9-21.8l53.2-24.6 152 70.2c23.4 10.8 50.4 10.8 73.8 0l152-70.2zm-152 198.2l152-70.2 53.2 24.6c8.5 3.9 13.9 12.4 13.9 21.8s-5.4 17.9-13.9 21.8l-218.6 101c-14.9 6.9-32.1 6.9-47 0L45.9 405.8C37.4 401.8 32 393.3 32 384s5.4-17.9 13.9-21.8l53.2-24.6 152 70.2c23.4 10.8 50.4 10.8 73.8 0z"/></symbol>
  <!-- fa-paint-roller -->
  <symbol id="icon-paint-roller" viewBox="0 0 512 512"><path fill="currentColor" d="M0 64C0 28.7 28.7 0 64 0L352 0c35.3 0 64 28.7 64 64l0 64c0 35.3-28.7 64-64 64L64 192c-35.3 0-64-28.7-64-64L0 64zM160 352c0-17.7 14.3-32 32-32l0-16c0-44.2 35.8-80 80-80l144 0c17.7 0 32-14.3 32-32l0-32 0-47.4c18.6-6.6 32-24.4 32-45.3l0-12.3 32 0c17.7 0 32 14.3 32 32l0 64c0 17.7-14.3 32-32 32l-32 0-160 0c-8.8 0-16 7.2-16 16l0 16c17.7 0 32 14.3 32 32l0 128c0 17.7-14.3 32-32 32l-96 0c-17.7 0-32-14.3-32-32l0-128z"/></symbol>
  <!-- fa-spinner -->
  <symbol id="icon-spinner" viewBox="0 0 512 512"><path fill="currentColor" d="M304 48a48 48 0 1 0 -96 0 48 48 0 1 0 96 0zm0 416a48 48 0 1 0 -96 0 48 48 0 1 0 96 0zM48 304a48 48 0 1 0 0-96 48 48 0 1 0 0 96zm464-48a48 48 0 1 0 -96 0 48 48 0 1 0 96 0zM142.9 437A48 48 0 1 0 75 369.1 48 48 0 1 0 142.9 437zm0-294.2A48 48 0 1 0 75 75a48 48 0 1 0 67.9 67.9zM369.1 437A48 48 0 1 0 437 369.1 48 48 0 1 0 369.1 437z"/></symbol>
  <!-- fa-times (xmark) -->
  <symbol id="icon-times" viewBox="0 0 384 512"><path fill="currentColor" d="M342.6 150.6c12.5-12.5 12.5-32.8 0-45.3s-32.8-12.5-45.3 0L192 210.7 86.6 105.4c-12.5-12.5-32.8-12.5-45.3 0s-12.5 32.8 0 45.3L146.7 256 41.4 361.4c-12.5 12.5-12.5 32.8 0 45.3s32.8 12.5 45.3 0L192 301.3 297.4 406.6c12.5 12.5 32.8 12.5 45.3 0s12.5-32.8 0-45.3L237.3 256 342.6 150.6z"/></symbol>
  <!-- fa-paper-plane -->
  <symbol id="icon-paper-plane" viewBox="0 0 512 512"><path fill="currentColor" d="M498.1 5.6c10.1 7 15.4 19.1 13.5 31.2l-64 416c-1.5 9.7-7.4 18.2-16 23s-18.9 5.4-28 1.6L284 427.7l-68.5 74.1c-8.9 9.7-22.9 12.9-35.2 8.1S160 493.6 160 480l0-83.6c0-4 1.5-7.8 4.2-10.8L331.8 202.8c5.8-6.3 5.4-16.1-.8-21.9s-16.1-5.4-21.9 .8L152 341.2 41.3 285.7c-10.7-5.2-17.2-16.2-16.6-28.1s8.2-22.2 19.3-26.3L460.9 2.5c10-3.7 21.2-1.5 29.1 5.6l8.1-2.5z"/></symbol>
  <!-- fab fa-whatsapp -->
  <symbol id="icon-whatsapp" viewBox="0 0 448 512"><path fill="currentColor" d="M380.9 97.1C339 55.1 283.2 32 223.9 32c-122.4 0-222 99.6-222 222 0 39.1 10.2 77.3 29.6 111L0 480l117.7-30.9c32.4 17.7 68.9 27 106.1 27h.1c122.3 0 224.1-99.6 224.1-222 0-59.3-25.2-115-67.1-157zm-157 341.6c-33.2 0-65.7-8.9-94-25.7l-6.7-4-69.8 18.3L72 357.6l-4.4-7c-18.5-29.4-28.2-63.3-28.2-98.2 0-101.7 82.8-184.5 184.6-184.5 49.3 0 95.6 19.2 130.4 54.1 34.8 34.9 56.2 81.2 56.1 130.5 0 101.8-84.9 184.6-186.6 184.6zm101.2-138.2c-5.5-2.8-32.8-16.2-37.9-18-5.1-1.9-8.8-2.8-12.5 2.8-3.7 5.6-14.3 18-17.6 21.8-3.2 3.7-6.5 4.2-12 1.4-32.6-16.3-54-29.1-75.5-66-5.7-9.8 5.7-9.1 16.3-30.3 1.8-3.7 .9-6.9-.5-9.7-1.4-2.8-12.5-30.1-17.1-41.2-4.5-10.8-9.1-9.3-12.5-9.5-3.2-.2-6.9-.2-10.6-.2-3.7 0-9.7 1.4-14.8 6.9-5.1 5.6-19.4 19-19.4 46.3 0 27.3 19.9 53.7 22.6 57.4 2.8 3.7 39.1 59.7 94.8 83.8 35.2 15.2 49 16.5 66.6 13.9 10.7-1.6 32.8-13.4 37.4-26.4 4.6-13 4.6-24.1 3.2-26.4-1.3-2.5-5-3.9-10.5-6.6z"/></symbol>
</svg>
